<svg id="svg" version="1.1" xmlns="http://www.w3.org/2000/svg" xmlns:xlink="http://www.w3.org/1999/xlink" width="400" height="400" viewBox="0, 0, 400,400"><g id="svgg"><path id="path0" d="M174.400 107.996 C 163.510 108.157,147.490 108.316,138.800 108.348 L 123.000 108.408 120.954 109.581 C 117.096 111.794,115.200 114.670,115.200 118.311 L 115.200 119.721 170.900 119.439 C 235.530 119.112,267.141 119.590,276.706 121.040 C 285.399 122.359,287.059 147.223,278.931 154.377 C 275.835 157.102,281.636 156.912,193.933 157.167 C 150.006 157.295,113.943 157.523,113.792 157.674 C 112.570 158.897,118.143 165.760,121.937 167.705 L 124.074 168.800 184.937 168.792 C 261.975 168.783,280.648 168.238,285.538 165.860 C 297.678 159.953,301.304 148.758,297.736 128.200 C 295.640 116.125,287.650 109.670,273.200 108.380 C 267.052 107.831,202.534 107.580,174.400 107.996 M166.000 179.642 C 153.570 179.811,138.270 180.016,132.000 180.097 C 119.541 180.258,119.915 180.188,117.335 182.869 C 115.641 184.630,114.806 186.684,114.802 189.100 L 114.800 190.400 121.500 190.402 C 125.185 190.404,141.970 190.203,158.800 189.957 C 202.743 189.314,235.941 190.175,239.030 192.037 C 244.950 195.606,245.059 216.409,239.184 221.352 C 236.848 223.318,237.306 223.302,173.600 223.559 C 114.090 223.799,113.801 223.804,113.932 224.600 C 114.364 227.218,117.204 231.100,119.801 232.622 L 121.543 233.643 153.871 233.878 C 209.765 234.286,241.158 233.273,245.151 230.933 C 254.224 225.615,257.063 214.165,253.838 195.896 C 252.413 187.826,245.903 181.478,237.927 180.383 C 230.386 179.348,205.992 179.097,166.000 179.642 M185.400 245.621 C 175.060 245.767,156.856 245.912,144.946 245.943 C 128.473 245.986,123.065 246.120,122.346 246.501 C 117.778 248.918,115.633 251.596,115.297 255.301 L 115.082 257.680 174.241 257.396 C 240.896 257.077,268.782 257.513,278.673 259.031 C 287.382 260.367,289.099 285.692,280.987 293.169 C 277.645 296.250,276.112 296.298,179.524 296.359 C 137.490 296.385,113.961 296.540,113.806 296.790 C 112.841 298.351,118.174 304.940,122.015 306.932 L 124.198 308.065 186.599 308.063 C 262.556 308.061,281.589 307.534,287.000 305.287 C 296.706 301.256,300.980 293.444,300.945 279.800 C 300.895 260.464,297.173 253.158,284.800 248.109 C 278.028 245.345,251.689 244.686,185.400 245.621 " stroke="none" fill="#f9f9f9" fill-rule="evenodd"></path><path id="path1" d="M182.600 0.427 C 178.860 0.629,175.487 0.976,175.105 1.197 C 174.723 1.419,173.418 1.600,172.205 1.600 C 170.992 1.600,170.000 1.755,170.000 1.945 C 170.000 2.135,168.450 2.416,166.555 2.569 C 164.661 2.723,162.816 3.009,162.455 3.206 C 162.095 3.402,160.585 3.675,159.100 3.813 C 157.615 3.951,156.400 4.229,156.400 4.432 C 156.400 4.634,155.680 4.800,154.800 4.800 C 153.920 4.800,153.200 4.957,153.200 5.148 C 153.200 5.340,152.125 5.618,150.812 5.767 C 149.499 5.915,148.326 6.196,148.206 6.390 C 148.086 6.585,147.000 6.867,145.794 7.018 C 144.587 7.169,143.600 7.451,143.600 7.646 C 143.600 7.841,143.150 8.000,142.600 8.000 C 142.050 8.000,141.600 8.157,141.600 8.348 C 141.600 8.540,140.707 8.815,139.616 8.960 C 138.525 9.105,137.525 9.398,137.393 9.612 C 137.261 9.825,136.758 10.001,136.276 10.002 C 135.794 10.004,134.884 10.274,134.254 10.602 C 133.624 10.931,132.859 11.200,132.554 11.200 C 132.249 11.200,132.000 11.357,132.000 11.549 C 132.000 11.741,131.304 12.009,130.453 12.145 C 129.602 12.281,128.387 12.663,127.753 12.994 C 127.119 13.324,126.373 13.596,126.095 13.598 C 125.577 13.600,123.959 14.407,123.600 14.842 C 123.490 14.976,122.725 15.209,121.900 15.360 C 121.075 15.512,120.400 15.789,120.400 15.975 C 120.400 16.161,119.905 16.433,119.300 16.579 C 117.759 16.951,116.000 17.744,116.000 18.066 C 116.000 18.215,115.460 18.455,114.800 18.600 C 114.140 18.745,113.600 19.009,113.600 19.187 C 113.600 19.365,112.970 19.629,112.200 19.774 C 111.430 19.918,110.800 20.208,110.800 20.418 C 110.800 20.628,110.530 20.800,110.200 20.800 C 109.870 20.800,109.600 20.966,109.600 21.168 C 109.600 21.371,109.060 21.655,108.400 21.800 C 107.740 21.945,107.200 22.209,107.200 22.387 C 107.200 22.565,106.570 22.829,105.800 22.974 C 105.030 23.118,104.400 23.408,104.400 23.618 C 104.400 23.828,104.130 24.000,103.800 24.000 C 103.470 24.000,103.200 24.160,103.200 24.357 C 103.200 24.553,102.750 24.826,102.200 24.964 C 101.650 25.102,101.200 25.378,101.200 25.576 C 101.200 25.774,100.660 26.055,100.000 26.200 C 99.340 26.345,98.800 26.601,98.800 26.769 C 98.800 26.937,98.128 27.417,97.306 27.837 C 96.484 28.257,95.572 28.825,95.278 29.100 C 94.983 29.375,94.486 29.600,94.171 29.600 C 93.857 29.600,93.600 29.759,93.600 29.953 C 93.600 30.148,93.285 30.412,92.900 30.542 C 91.870 30.888,90.100 32.076,88.644 33.400 C 88.160 33.840,87.643 34.200,87.495 34.200 C 87.347 34.200,86.858 34.515,86.408 34.900 C 85.959 35.285,85.450 35.600,85.277 35.600 C 84.900 35.600,83.448 36.660,82.124 37.900 C 81.596 38.395,81.019 38.800,80.843 38.800 C 80.667 38.800,80.149 39.115,79.692 39.500 C 79.235 39.885,78.288 40.650,77.589 41.200 C 76.889 41.750,76.078 42.425,75.787 42.700 C 75.495 42.975,75.129 43.200,74.972 43.200 C 74.815 43.200,74.171 43.740,73.540 44.400 C 72.909 45.060,72.244 45.600,72.062 45.600 C 71.880 45.600,70.807 46.500,69.677 47.600 C 68.548 48.700,67.479 49.600,67.302 49.600 C 67.125 49.600,66.227 50.365,65.307 51.300 C 64.387 52.235,63.425 53.204,63.170 53.452 C 62.914 53.701,62.165 54.445,61.505 55.105 C 60.845 55.765,60.125 56.485,59.905 56.705 C 59.247 57.362,57.096 59.513,56.705 59.905 C 56.485 60.125,55.792 60.821,55.165 61.452 C 54.538 62.084,53.795 62.812,53.513 63.072 C 53.231 63.332,52.143 64.502,51.095 65.672 C 50.047 66.842,48.292 68.789,47.195 69.999 C 46.098 71.208,45.200 72.383,45.200 72.610 C 45.200 72.838,44.829 73.288,44.375 73.612 C 43.921 73.935,43.163 74.823,42.690 75.585 C 42.216 76.347,41.553 77.261,41.215 77.615 C 40.097 78.787,38.800 80.568,38.800 80.929 C 38.800 81.125,38.350 81.639,37.800 82.071 C 37.250 82.504,36.800 83.115,36.800 83.429 C 36.800 83.743,36.632 84.000,36.427 84.000 C 36.222 84.000,35.938 84.366,35.796 84.813 C 35.654 85.260,35.147 86.044,34.669 86.555 C 33.266 88.056,32.400 89.325,32.400 89.881 C 32.400 90.167,32.261 90.400,32.091 90.400 C 31.921 90.400,31.426 91.075,30.992 91.900 C 30.557 92.725,29.976 93.638,29.701 93.929 C 29.425 94.219,29.200 94.714,29.200 95.029 C 29.200 95.343,29.041 95.600,28.847 95.600 C 28.652 95.600,28.388 95.915,28.258 96.300 C 28.003 97.060,27.149 98.479,26.754 98.800 C 26.619 98.910,26.381 99.405,26.227 99.900 C 26.072 100.395,25.793 100.800,25.605 100.800 C 25.417 100.800,25.145 101.340,25.000 102.000 C 24.855 102.660,24.571 103.200,24.368 103.200 C 24.166 103.200,24.000 103.455,24.000 103.767 C 24.000 104.078,23.865 104.393,23.700 104.467 C 23.216 104.682,18.394 114.533,18.397 115.300 C 18.399 115.685,18.220 116.000,18.000 116.000 C 17.780 116.000,17.600 116.270,17.600 116.600 C 17.600 116.930,17.428 117.200,17.218 117.200 C 17.008 117.200,16.718 117.830,16.574 118.600 C 16.429 119.370,16.167 120.000,15.991 120.000 C 15.814 120.000,15.549 120.720,15.400 121.600 C 15.251 122.480,15.009 123.200,14.862 123.200 C 14.499 123.200,13.676 125.118,13.359 126.703 C 13.217 127.416,12.958 128.000,12.785 128.000 C 12.612 128.000,12.349 128.720,12.200 129.600 C 12.051 130.480,11.766 131.200,11.565 131.200 C 11.364 131.200,11.200 131.650,11.200 132.200 C 11.200 132.750,11.040 133.200,10.845 133.200 C 10.650 133.200,10.370 134.006,10.222 134.991 C 10.075 135.976,9.795 136.880,9.600 137.000 C 9.405 137.120,9.125 138.024,8.978 139.009 C 8.830 139.994,8.550 140.800,8.355 140.800 C 8.160 140.800,8.000 141.239,8.000 141.776 C 8.000 142.313,7.837 142.854,7.637 142.977 C 7.438 143.100,7.151 144.100,7.000 145.200 C 6.849 146.300,6.580 147.289,6.402 147.399 C 6.224 147.509,5.953 148.679,5.800 149.999 C 5.647 151.320,5.359 152.400,5.161 152.400 C 4.962 152.400,4.800 153.019,4.800 153.776 C 4.800 154.533,4.634 155.255,4.431 155.381 C 4.229 155.506,3.937 156.822,3.783 158.304 C 3.629 159.787,3.352 161.190,3.167 161.422 C 2.983 161.654,2.709 163.319,2.558 165.122 C 2.408 166.925,2.131 168.400,1.942 168.400 C 1.754 168.400,1.600 169.354,1.600 170.520 C 1.600 171.686,1.437 172.811,1.237 173.020 C -0.324 174.657,-0.324 225.343,1.237 226.980 C 1.437 227.189,1.600 228.303,1.600 229.456 C 1.600 230.609,1.758 231.651,1.952 231.770 C 2.146 231.890,2.432 233.520,2.588 235.393 C 2.744 237.265,3.012 238.884,3.183 238.990 C 3.355 239.096,3.619 240.442,3.771 241.982 C 3.922 243.522,4.216 244.886,4.423 245.014 C 4.630 245.142,4.800 245.766,4.800 246.400 C 4.800 247.034,4.962 247.653,5.161 247.776 C 5.359 247.898,5.647 249.079,5.800 250.399 C 5.953 251.720,6.220 252.800,6.393 252.800 C 6.566 252.800,6.832 253.790,6.983 255.000 C 7.134 256.210,7.425 257.200,7.629 257.200 C 7.833 257.200,8.000 257.740,8.000 258.400 C 8.000 259.060,8.163 259.600,8.362 259.600 C 8.562 259.600,8.849 260.500,9.000 261.600 C 9.151 262.700,9.418 263.600,9.592 263.600 C 9.766 263.600,10.031 264.410,10.179 265.400 C 10.328 266.390,10.618 267.200,10.825 267.200 C 11.031 267.200,11.200 267.650,11.200 268.200 C 11.200 268.750,11.364 269.200,11.565 269.200 C 11.766 269.200,12.051 269.920,12.200 270.800 C 12.349 271.680,12.619 272.400,12.800 272.400 C 12.981 272.400,13.251 273.120,13.400 274.000 C 13.549 274.880,13.791 275.600,13.938 275.600 C 14.257 275.600,15.050 277.365,15.421 278.900 C 15.567 279.505,15.847 280.000,16.043 280.000 C 16.240 280.000,16.401 280.315,16.402 280.700 C 16.404 281.085,16.674 281.916,17.002 282.546 C 17.331 283.176,17.600 283.941,17.600 284.246 C 17.600 284.551,17.766 284.800,17.968 284.800 C 18.171 284.800,18.455 285.340,18.600 286.000 C 18.745 286.660,19.015 287.200,19.200 287.200 C 19.385 287.200,19.655 287.740,19.800 288.400 C 19.945 289.060,20.229 289.600,20.432 289.600 C 20.634 289.600,20.800 289.960,20.800 290.400 C 20.800 290.840,20.966 291.200,21.168 291.200 C 21.371 291.200,21.655 291.740,21.800 292.400 C 21.945 293.060,22.215 293.600,22.400 293.600 C 22.585 293.600,22.855 294.140,23.000 294.800 C 23.145 295.460,23.429 296.000,23.632 296.000 C 23.834 296.000,24.000 296.270,24.000 296.600 C 24.000 296.930,24.177 297.200,24.392 297.200 C 24.608 297.200,24.898 297.650,25.036 298.200 C 25.174 298.750,25.447 299.200,25.643 299.200 C 25.840 299.200,26.000 299.452,26.000 299.760 C 26.000 300.068,26.721 301.463,27.602 302.860 C 28.484 304.257,29.318 305.638,29.456 305.928 C 29.594 306.219,30.853 308.170,32.254 310.265 C 33.654 312.360,34.800 314.218,34.800 314.394 C 34.800 314.570,35.070 314.818,35.400 314.945 C 35.730 315.071,36.000 315.411,36.000 315.699 C 36.000 315.987,36.350 316.476,36.779 316.785 C 37.207 317.093,37.483 317.466,37.392 317.612 C 37.302 317.759,37.548 318.223,37.941 318.644 C 38.333 319.065,38.822 319.698,39.027 320.051 C 39.534 320.923,41.521 323.418,43.098 325.163 C 43.812 325.953,44.397 326.729,44.398 326.887 C 44.399 327.044,44.985 327.785,45.700 328.532 C 46.415 329.280,47.630 330.650,48.400 331.578 C 50.391 333.975,50.812 334.400,51.202 334.400 C 51.391 334.400,51.659 334.756,51.797 335.191 C 52.125 336.223,63.777 347.875,64.809 348.203 C 65.244 348.341,65.600 348.609,65.600 348.798 C 65.600 349.186,66.014 349.598,68.416 351.600 C 69.339 352.370,70.815 353.675,71.696 354.500 C 72.576 355.325,73.415 356.000,73.559 356.000 C 73.704 356.000,74.374 356.495,75.049 357.100 C 77.100 358.939,79.277 360.584,80.059 360.887 C 80.467 361.045,80.800 361.332,80.800 361.524 C 80.800 361.717,81.430 362.213,82.200 362.628 C 82.970 363.043,83.600 363.521,83.600 363.691 C 83.600 363.861,83.876 364.000,84.213 364.000 C 84.549 364.000,84.929 364.270,85.055 364.600 C 85.182 364.930,85.426 365.200,85.597 365.200 C 85.920 365.200,90.847 368.376,91.200 368.811 C 91.310 368.947,91.670 369.187,92.000 369.345 C 92.927 369.788,94.097 370.514,95.470 371.500 C 96.159 371.995,96.847 372.400,96.999 372.400 C 97.150 372.400,97.731 372.760,98.291 373.200 C 98.850 373.640,99.644 374.000,100.054 374.000 C 100.464 374.000,100.800 374.160,100.800 374.357 C 100.800 374.553,101.250 374.826,101.800 374.964 C 102.350 375.102,102.800 375.392,102.800 375.608 C 102.800 375.823,103.070 376.000,103.400 376.000 C 103.730 376.000,104.000 376.166,104.000 376.368 C 104.000 376.571,104.540 376.855,105.200 377.000 C 105.860 377.145,106.400 377.415,106.400 377.600 C 106.400 377.785,106.940 378.055,107.600 378.200 C 108.260 378.345,108.800 378.629,108.800 378.832 C 108.800 379.034,109.160 379.200,109.600 379.200 C 110.040 379.200,110.400 379.366,110.400 379.568 C 110.400 379.771,110.940 380.055,111.600 380.200 C 112.260 380.345,112.800 380.615,112.800 380.800 C 112.800 380.985,113.340 381.255,114.000 381.400 C 114.660 381.545,115.200 381.829,115.200 382.032 C 115.200 382.234,115.560 382.400,116.000 382.400 C 116.440 382.400,116.800 382.564,116.800 382.765 C 116.800 382.966,117.520 383.251,118.400 383.400 C 119.280 383.549,120.000 383.820,120.000 384.003 C 120.000 384.187,120.538 384.455,121.195 384.599 C 121.853 384.743,122.494 385.028,122.619 385.231 C 122.745 385.434,123.197 385.600,123.624 385.600 C 124.051 385.600,124.400 385.778,124.400 385.995 C 124.400 386.213,125.120 386.506,126.000 386.646 C 126.880 386.787,127.600 387.036,127.600 387.200 C 127.600 387.364,128.320 387.613,129.200 387.754 C 130.080 387.894,130.800 388.187,130.800 388.405 C 130.800 388.622,131.250 388.800,131.800 388.800 C 132.350 388.800,132.800 388.969,132.800 389.175 C 132.800 389.382,133.610 389.672,134.600 389.821 C 135.590 389.969,136.400 390.234,136.400 390.408 C 136.400 390.582,137.300 390.849,138.400 391.000 C 139.500 391.151,140.400 391.438,140.400 391.638 C 140.400 391.837,140.940 392.000,141.600 392.000 C 142.260 392.000,142.800 392.167,142.800 392.371 C 142.800 392.575,143.790 392.866,145.000 393.017 C 146.210 393.168,147.200 393.443,147.200 393.626 C 147.200 393.810,148.280 394.082,149.600 394.232 C 150.920 394.381,152.000 394.660,152.000 394.852 C 152.000 395.043,152.619 395.200,153.376 395.200 C 154.133 395.200,154.858 395.370,154.986 395.577 C 155.114 395.784,156.474 396.077,158.009 396.228 C 159.544 396.380,160.800 396.647,160.800 396.822 C 160.800 396.997,162.420 397.267,164.400 397.422 C 166.380 397.576,168.000 397.860,168.000 398.052 C 168.000 398.243,168.954 398.400,170.120 398.400 C 171.286 398.400,172.411 398.562,172.620 398.759 C 174.290 400.338,225.310 400.338,226.980 398.759 C 227.189 398.562,228.314 398.400,229.480 398.400 C 230.646 398.400,231.600 398.243,231.600 398.052 C 231.600 397.860,233.218 397.577,235.195 397.422 C 237.172 397.267,238.881 396.992,238.993 396.811 C 239.105 396.630,240.458 396.355,242.000 396.200 C 243.542 396.045,244.903 395.757,245.025 395.559 C 245.147 395.362,245.777 395.200,246.424 395.200 C 247.071 395.200,247.600 395.034,247.600 394.832 C 247.600 394.629,248.770 394.338,250.200 394.185 C 251.630 394.032,252.800 393.769,252.800 393.599 C 252.800 393.430,253.790 393.168,255.000 393.017 C 256.210 392.866,257.200 392.575,257.200 392.371 C 257.200 392.167,257.639 392.000,258.176 392.000 C 258.713 392.000,259.251 391.841,259.371 391.646 C 259.492 391.452,260.398 391.171,261.386 391.023 C 262.373 390.875,263.276 390.600,263.393 390.412 C 263.509 390.224,264.322 389.948,265.200 389.800 C 266.078 389.652,266.897 389.366,267.022 389.165 C 267.146 388.964,267.597 388.800,268.024 388.800 C 268.451 388.800,268.800 388.631,268.800 388.425 C 268.800 388.218,269.610 387.928,270.600 387.779 C 271.590 387.631,272.400 387.350,272.400 387.155 C 272.400 386.960,272.688 386.800,273.040 386.800 C 273.723 386.800,276.467 385.617,276.800 385.179 C 276.910 385.034,277.675 384.791,278.500 384.640 C 279.325 384.488,280.000 384.212,280.000 384.026 C 280.000 383.841,280.630 383.571,281.400 383.426 C 282.170 383.282,282.800 382.992,282.800 382.782 C 282.800 382.572,283.160 382.400,283.600 382.400 C 284.040 382.400,284.400 382.240,284.400 382.045 C 284.400 381.849,285.030 381.571,285.800 381.426 C 286.570 381.282,287.200 381.006,287.200 380.814 C 287.200 380.621,287.740 380.345,288.400 380.200 C 289.060 380.055,289.600 379.813,289.600 379.663 C 289.600 379.365,292.557 378.000,293.203 378.000 C 293.421 378.000,293.600 377.840,293.600 377.643 C 293.600 377.447,294.050 377.174,294.600 377.036 C 295.150 376.898,295.600 376.608,295.600 376.392 C 295.600 376.177,295.870 376.000,296.200 376.000 C 296.530 376.000,296.800 375.834,296.800 375.632 C 296.800 375.429,297.340 375.145,298.000 375.000 C 298.660 374.855,299.200 374.571,299.200 374.368 C 299.200 374.166,299.457 374.000,299.771 374.000 C 300.086 374.000,300.589 373.754,300.890 373.453 C 301.191 373.152,301.802 372.790,302.248 372.648 C 302.694 372.507,303.411 372.078,303.841 371.695 C 304.272 371.313,305.485 370.550,306.538 370.000 C 307.591 369.450,308.770 368.707,309.157 368.349 C 309.545 367.991,310.253 367.574,310.731 367.422 C 311.209 367.270,311.600 366.978,311.600 366.773 C 311.600 366.568,311.825 366.397,312.100 366.394 C 312.375 366.390,313.230 365.852,314.000 365.198 C 316.288 363.254,316.358 363.200,316.571 363.200 C 316.987 363.200,320.400 360.635,320.400 360.323 C 320.400 360.145,320.640 360.000,320.933 360.000 C 321.227 360.000,321.992 359.465,322.633 358.811 C 323.275 358.157,323.959 357.617,324.153 357.611 C 324.347 357.605,325.100 356.970,325.826 356.200 C 326.552 355.430,327.316 354.800,327.523 354.800 C 327.730 354.800,328.777 353.999,329.850 353.019 C 330.922 352.040,332.845 350.285,334.122 349.119 C 335.400 347.954,336.660 346.763,336.922 346.472 C 337.185 346.182,337.850 345.552,338.400 345.072 C 339.662 343.971,343.916 339.723,345.080 338.400 C 345.565 337.850,346.195 337.174,346.480 336.897 C 348.678 334.772,351.200 332.052,351.200 331.808 C 351.200 331.645,352.010 330.713,353.000 329.737 C 353.990 328.761,354.800 327.767,354.800 327.528 C 354.800 327.289,355.214 326.712,355.719 326.247 C 356.224 325.781,357.439 324.320,358.419 323.000 C 359.399 321.680,360.425 320.362,360.700 320.071 C 360.975 319.781,361.200 319.357,361.200 319.129 C 361.200 318.901,361.650 318.361,362.200 317.929 C 362.750 317.496,363.200 316.885,363.200 316.571 C 363.200 316.257,363.368 316.000,363.573 316.000 C 363.778 316.000,364.074 315.595,364.230 315.100 C 364.387 314.605,364.849 313.965,365.257 313.677 C 365.666 313.390,366.000 312.889,366.000 312.565 C 366.000 312.240,366.254 311.878,366.564 311.759 C 366.874 311.639,367.237 311.105,367.372 310.571 C 367.506 310.037,367.792 309.600,368.008 309.600 C 368.223 309.600,368.400 309.330,368.400 309.000 C 368.400 308.670,368.568 308.400,368.773 308.400 C 368.978 308.400,369.272 308.003,369.426 307.519 C 369.580 307.034,369.952 306.391,370.253 306.090 C 370.554 305.789,370.800 305.286,370.800 304.971 C 370.800 304.657,370.980 304.400,371.200 304.400 C 371.420 304.400,371.600 304.130,371.600 303.800 C 371.600 303.470,371.777 303.200,371.992 303.200 C 372.208 303.200,372.498 302.750,372.636 302.200 C 372.774 301.650,373.033 301.200,373.212 301.200 C 373.390 301.200,373.655 300.660,373.800 300.000 C 373.945 299.340,374.226 298.800,374.424 298.800 C 374.622 298.800,374.898 298.350,375.036 297.800 C 375.174 297.250,375.447 296.800,375.643 296.800 C 375.840 296.800,376.000 296.530,376.000 296.200 C 376.000 295.870,376.172 295.600,376.382 295.600 C 376.592 295.600,376.882 294.970,377.026 294.200 C 377.171 293.430,377.435 292.800,377.613 292.800 C 377.791 292.800,378.055 292.260,378.200 291.600 C 378.345 290.940,378.629 290.400,378.832 290.400 C 379.034 290.400,379.200 290.130,379.200 289.800 C 379.200 289.470,379.372 289.200,379.582 289.200 C 379.792 289.200,380.082 288.570,380.226 287.800 C 380.371 287.030,380.635 286.400,380.813 286.400 C 380.991 286.400,381.255 285.860,381.400 285.200 C 381.545 284.540,381.787 284.000,381.937 284.000 C 382.285 284.000,383.600 280.992,383.600 280.197 C 383.600 279.869,383.766 279.600,383.968 279.600 C 384.171 279.600,384.454 279.064,384.598 278.409 C 384.742 277.754,385.295 276.359,385.828 275.309 C 386.361 274.259,386.797 273.085,386.798 272.700 C 386.799 272.315,386.960 272.000,387.155 272.000 C 387.350 272.000,387.631 271.190,387.779 270.200 C 387.928 269.210,388.218 268.400,388.425 268.400 C 388.631 268.400,388.800 268.051,388.800 267.624 C 388.800 267.197,388.970 266.742,389.177 266.614 C 389.384 266.486,389.675 265.576,389.822 264.591 C 389.970 263.606,390.234 262.800,390.408 262.800 C 390.582 262.800,390.849 261.900,391.000 260.800 C 391.151 259.701,391.438 258.700,391.637 258.577 C 391.837 258.454,392.000 257.913,392.000 257.376 C 392.000 256.839,392.167 256.400,392.371 256.400 C 392.575 256.400,392.866 255.410,393.017 254.200 C 393.168 252.990,393.437 252.000,393.614 252.000 C 393.791 252.000,394.062 250.830,394.215 249.400 C 394.368 247.970,394.633 246.800,394.803 246.800 C 395.124 246.800,395.249 246.243,396.067 241.200 C 396.335 239.550,396.678 238.110,396.829 238.000 C 396.981 237.890,397.235 236.135,397.395 234.100 C 397.554 232.065,397.846 230.400,398.042 230.400 C 398.239 230.400,398.400 229.356,398.400 228.080 C 398.400 226.804,398.563 225.589,398.762 225.380 C 400.238 223.830,400.242 176.552,398.766 175.020 C 398.565 174.811,398.400 173.596,398.400 172.320 C 398.400 171.044,398.243 170.000,398.052 170.000 C 397.860 170.000,397.576 168.380,397.422 166.400 C 397.267 164.420,396.997 162.800,396.822 162.800 C 396.647 162.800,396.378 161.360,396.224 159.600 C 396.071 157.840,395.777 156.400,395.573 156.400 C 395.368 156.400,395.200 155.781,395.200 155.024 C 395.200 154.267,395.038 153.547,394.839 153.424 C 394.641 153.302,394.353 152.121,394.200 150.801 C 394.047 149.480,393.780 148.400,393.607 148.400 C 393.434 148.400,393.169 147.413,393.018 146.206 C 392.867 145.000,392.577 143.909,392.372 143.783 C 392.167 143.656,392.000 143.113,392.000 142.576 C 392.000 142.039,391.837 141.600,391.638 141.600 C 391.438 141.600,391.151 140.700,391.000 139.600 C 390.849 138.500,390.582 137.600,390.408 137.600 C 390.234 137.600,389.969 136.790,389.821 135.800 C 389.672 134.810,389.382 134.000,389.175 134.000 C 388.969 134.000,388.800 133.550,388.800 133.000 C 388.800 132.450,388.620 132.000,388.400 132.000 C 388.180 132.000,387.999 131.595,387.998 131.100 C 387.996 130.605,387.743 129.717,387.435 129.127 C 387.127 128.537,386.755 127.504,386.607 126.832 C 386.459 126.159,386.172 125.506,385.969 125.381 C 385.766 125.255,385.600 124.803,385.600 124.376 C 385.600 123.949,385.436 123.600,385.235 123.600 C 385.034 123.600,384.749 122.880,384.600 122.000 C 384.451 121.120,384.180 120.400,383.997 120.400 C 383.813 120.400,383.545 119.860,383.400 119.200 C 383.255 118.540,382.971 118.000,382.768 118.000 C 382.566 118.000,382.400 117.651,382.400 117.224 C 382.400 116.797,382.234 116.345,382.031 116.219 C 381.828 116.094,381.543 115.453,381.399 114.795 C 381.255 114.138,380.991 113.600,380.813 113.600 C 380.635 113.600,380.371 112.970,380.226 112.200 C 380.082 111.430,379.792 110.800,379.582 110.800 C 379.372 110.800,379.200 110.530,379.200 110.200 C 379.200 109.870,379.034 109.600,378.832 109.600 C 378.629 109.600,378.345 109.060,378.200 108.400 C 378.055 107.740,377.790 107.200,377.612 107.200 C 377.433 107.200,377.173 106.745,377.033 106.190 C 376.894 105.634,376.443 104.843,376.031 104.431 C 375.619 104.019,375.159 103.123,375.009 102.441 C 374.859 101.758,374.590 101.200,374.412 101.200 C 374.233 101.200,373.974 100.750,373.836 100.200 C 373.698 99.650,373.408 99.200,373.192 99.200 C 372.977 99.200,372.800 98.999,372.800 98.754 C 372.800 98.219,369.361 92.540,368.330 91.374 C 367.929 90.920,367.600 90.418,367.600 90.258 C 367.600 89.878,365.888 87.439,365.500 87.267 C 365.335 87.193,365.200 86.878,365.200 86.567 C 365.200 86.255,365.032 86.000,364.827 86.000 C 364.622 86.000,364.334 85.622,364.187 85.161 C 364.041 84.699,363.624 84.006,363.261 83.621 C 362.186 82.481,361.441 81.491,360.460 79.900 C 359.951 79.075,359.369 78.400,359.167 78.400 C 358.965 78.400,358.800 78.207,358.800 77.971 C 358.800 77.736,358.575 77.305,358.300 77.013 C 358.025 76.722,357.350 75.906,356.800 75.200 C 356.250 74.494,355.125 73.178,354.300 72.276 C 353.475 71.374,352.800 70.508,352.800 70.353 C 352.800 70.197,351.810 69.072,350.600 67.852 C 349.390 66.633,348.400 65.513,348.400 65.365 C 348.400 65.013,334.987 51.600,334.635 51.600 C 334.487 51.600,333.367 50.610,332.148 49.400 C 330.928 48.190,329.803 47.200,329.647 47.200 C 329.492 47.200,328.626 46.525,327.724 45.700 C 326.822 44.875,325.506 43.750,324.800 43.200 C 324.094 42.650,323.278 41.975,322.987 41.700 C 322.695 41.425,322.264 41.200,322.029 41.200 C 321.793 41.200,321.600 41.035,321.600 40.833 C 321.600 40.631,320.925 40.049,320.100 39.540 C 318.711 38.684,317.366 37.646,316.228 36.553 C 315.972 36.307,315.366 35.980,314.881 35.826 C 314.397 35.672,314.000 35.378,314.000 35.173 C 314.000 34.968,313.745 34.800,313.433 34.800 C 313.122 34.800,312.807 34.665,312.733 34.500 C 312.489 33.950,310.041 32.400,309.416 32.400 C 309.077 32.400,308.800 32.231,308.800 32.024 C 308.800 31.611,301.854 27.200,301.204 27.200 C 300.982 27.200,300.800 27.023,300.800 26.808 C 300.800 26.592,300.350 26.302,299.800 26.164 C 299.250 26.026,298.800 25.767,298.800 25.588 C 298.800 25.410,298.230 25.138,297.533 24.985 C 296.837 24.832,295.895 24.361,295.441 23.938 C 294.987 23.515,294.207 23.066,293.708 22.941 C 293.209 22.816,292.800 22.572,292.800 22.400 C 292.800 22.228,292.307 21.963,291.704 21.812 C 291.101 21.660,290.516 21.416,290.404 21.268 C 290.018 20.761,287.676 19.600,287.038 19.600 C 286.687 19.600,286.400 19.434,286.400 19.232 C 286.400 19.029,285.862 18.745,285.205 18.601 C 284.547 18.457,283.906 18.172,283.781 17.969 C 283.655 17.766,283.203 17.600,282.776 17.600 C 282.349 17.600,282.000 17.420,282.000 17.200 C 282.000 16.980,281.775 16.799,281.500 16.798 C 281.225 16.796,280.517 16.543,279.927 16.235 C 279.337 15.927,278.302 15.554,277.627 15.406 C 276.952 15.258,276.400 14.971,276.400 14.768 C 276.400 14.566,276.151 14.400,275.846 14.400 C 275.541 14.400,274.776 14.131,274.146 13.802 C 273.516 13.474,272.595 13.204,272.100 13.202 C 271.605 13.201,271.200 13.022,271.200 12.805 C 271.200 12.587,270.480 12.294,269.600 12.154 C 268.720 12.013,268.000 11.741,268.000 11.549 C 268.000 11.357,267.550 11.200,267.000 11.200 C 266.450 11.200,266.000 11.031,266.000 10.825 C 266.000 10.618,265.190 10.328,264.200 10.179 C 263.210 10.031,262.400 9.766,262.400 9.592 C 262.400 9.418,261.500 9.151,260.400 9.000 C 259.300 8.849,258.400 8.562,258.400 8.362 C 258.400 8.163,257.961 8.000,257.424 8.000 C 256.887 8.000,256.344 7.833,256.217 7.628 C 256.091 7.423,254.998 7.132,253.788 6.981 C 252.579 6.830,251.502 6.565,251.395 6.393 C 251.289 6.220,250.121 5.953,248.801 5.800 C 247.480 5.647,246.400 5.359,246.400 5.161 C 246.400 4.962,245.781 4.800,245.024 4.800 C 244.267 4.800,243.545 4.635,243.421 4.434 C 243.296 4.233,241.846 3.941,240.197 3.787 C 238.549 3.632,237.200 3.364,237.200 3.190 C 237.200 3.017,235.490 2.746,233.400 2.590 C 231.310 2.433,229.600 2.162,229.600 1.988 C 229.600 1.814,228.565 1.572,227.300 1.450 C 226.035 1.328,223.380 1.051,221.400 0.833 C 216.213 0.263,190.590 -0.006,182.600 0.427 M269.378 107.804 C 274.866 108.130,279.537 108.577,279.758 108.798 C 279.979 109.019,280.500 109.200,280.915 109.200 C 283.272 109.200,290.900 113.999,293.800 117.306 C 297.507 121.534,299.277 129.343,299.263 141.399 C 299.253 149.476,298.861 151.412,296.070 157.188 C 293.840 161.804,286.168 167.023,280.690 167.651 C 265.026 169.447,129.051 170.418,123.400 168.774 C 120.686 167.985,117.343 165.324,115.432 162.432 C 113.965 160.212,112.794 157.349,113.268 157.143 C 113.341 157.111,149.490 156.954,193.600 156.794 C 283.132 156.470,275.927 156.733,278.996 153.677 C 285.385 147.316,285.417 129.002,279.050 122.852 C 276.107 120.010,236.599 119.203,139.400 120.000 L 115.000 120.200 114.877 118.052 C 114.671 114.442,116.309 111.891,120.452 109.370 L 122.705 108.000 141.252 107.946 C 151.454 107.917,164.750 107.771,170.800 107.621 C 193.769 107.054,258.764 107.175,269.378 107.804 M263.292 126.978 C 275.423 128.483,279.077 130.715,280.398 137.427 C 281.548 143.275,278.529 146.638,270.173 148.816 C 266.187 149.855,235.560 150.363,178.400 150.340 C 122.072 150.316,120.987 150.247,117.425 146.452 L 116.250 145.200 165.625 145.158 C 236.478 145.098,260.909 144.767,263.095 143.838 C 268.253 141.645,268.728 135.586,263.925 133.260 C 261.045 131.866,242.559 131.532,176.233 131.675 C 131.894 131.771,118.230 131.689,118.109 131.327 C 118.022 131.067,118.229 130.318,118.567 129.663 C 119.157 128.523,119.832 128.161,123.800 126.857 C 125.922 126.160,257.615 126.274,263.292 126.978 M235.000 179.580 C 239.287 180.015,240.303 180.258,243.200 181.539 C 246.569 183.029,251.058 187.165,252.444 190.056 C 253.842 192.973,254.006 193.503,254.410 196.400 C 256.439 210.962,255.463 220.897,251.517 225.845 C 247.627 230.725,244.568 232.359,238.000 233.066 C 223.997 234.575,122.235 234.645,119.749 233.148 C 116.634 231.273,111.909 223.960,113.268 223.118 C 113.341 223.074,141.030 222.939,174.800 222.818 C 242.536 222.577,237.272 222.795,239.600 220.140 C 244.193 214.903,244.411 199.752,239.980 193.636 C 237.966 190.855,226.785 190.285,177.800 190.466 C 160.420 190.530,139.090 190.586,130.400 190.591 L 114.600 190.600 114.636 188.147 C 114.679 185.180,115.436 183.733,118.140 181.443 L 120.080 179.800 141.940 179.511 C 153.963 179.352,166.230 179.156,169.200 179.075 C 180.734 178.761,230.713 179.145,235.000 179.580 M228.400 196.591 C 235.915 198.080,238.281 199.652,239.618 204.048 C 241.561 210.439,239.448 213.827,232.000 216.260 C 228.336 217.456,126.140 218.309,121.800 217.179 C 118.880 216.419,115.600 214.200,115.600 212.985 C 115.600 212.645,129.615 212.467,170.162 212.291 C 224.189 212.057,224.740 212.047,226.336 211.233 C 230.433 209.143,230.306 203.759,226.115 201.896 C 225.250 201.511,212.868 201.374,170.900 201.284 L 116.800 201.168 116.800 200.054 C 116.800 198.735,118.101 197.385,120.036 196.694 C 123.190 195.567,222.754 195.472,228.400 196.591 M262.800 245.216 C 280.243 245.763,282.622 246.143,288.507 249.316 C 293.829 252.185,298.086 256.879,299.285 261.200 C 301.373 268.729,302.233 285.242,300.763 289.600 C 300.503 290.370,300.023 291.810,299.696 292.800 C 298.382 296.777,294.005 302.068,290.515 303.898 C 289.682 304.335,288.281 305.098,287.402 305.594 C 283.164 307.987,245.078 309.016,171.800 308.716 L 124.200 308.521 122.341 307.636 C 118.170 305.649,112.525 298.736,113.339 296.614 C 113.549 296.067,119.231 295.997,165.687 295.969 C 194.349 295.953,231.030 295.802,247.200 295.635 L 276.600 295.331 278.531 294.407 C 279.815 293.792,280.967 292.798,281.966 291.441 C 283.387 289.512,283.948 288.240,285.248 284.000 C 285.951 281.708,285.961 272.050,285.263 269.800 C 281.850 258.798,282.669 259.183,260.886 258.309 C 247.755 257.782,176.719 257.607,135.800 258.000 L 115.000 258.200 114.878 256.054 C 114.727 253.415,115.686 251.203,117.865 249.162 C 121.318 245.928,120.272 246.098,138.600 245.792 C 193.646 244.875,244.423 244.639,262.800 245.216 M265.417 265.019 C 270.436 265.669,271.330 265.883,275.682 267.475 C 279.022 268.697,280.230 269.633,281.192 271.744 C 284.958 280.000,282.345 284.759,272.460 287.651 C 267.633 289.063,130.631 290.083,124.320 288.754 C 120.575 287.965,116.400 285.453,116.400 283.988 C 116.400 283.821,148.845 283.601,188.500 283.499 C 268.800 283.293,264.072 283.468,267.064 280.600 C 269.944 277.841,269.266 273.472,265.697 271.778 C 262.936 270.468,257.600 270.372,187.700 270.372 L 118.000 270.372 118.000 269.256 C 118.000 267.680,119.524 266.416,122.703 265.352 L 125.400 264.451 193.017 264.425 C 251.829 264.403,261.256 264.481,265.417 265.019 " stroke="none" fill="#342c2c" fill-rule="evenodd"></path><path id="path2" d="M145.200 196.391 C 119.279 196.611,120.160 196.548,117.900 198.362 C 117.515 198.671,117.200 199.330,117.200 199.827 L 117.200 200.729 171.100 200.870 L 225.000 201.011 226.692 201.909 C 230.944 204.168,230.575 209.705,226.037 211.714 C 224.227 212.516,223.414 212.530,170.100 212.719 C 140.345 212.825,116.000 213.053,116.000 213.227 C 116.000 213.865,119.009 215.996,120.749 216.589 C 122.846 217.303,212.533 217.490,224.000 216.804 C 235.690 216.104,239.850 213.622,239.759 207.400 C 239.674 201.615,237.607 199.327,230.679 197.351 C 226.376 196.123,205.000 195.883,145.200 196.391 M124.600 265.074 C 120.576 266.049,118.400 267.447,118.400 269.056 L 118.400 269.972 182.300 269.928 C 249.758 269.882,263.194 270.115,265.580 271.375 C 270.672 274.063,270.516 279.709,265.279 282.281 L 263.000 283.400 190.213 283.507 C 150.180 283.566,117.279 283.761,117.100 283.940 C 116.227 284.813,120.165 287.338,124.000 288.363 C 126.530 289.040,263.422 288.746,268.355 288.054 C 280.701 286.321,285.218 280.649,280.992 272.186 C 279.327 268.853,277.185 267.720,268.800 265.734 C 265.911 265.049,127.317 264.415,124.600 265.074 " stroke="none" fill="#f0821c" fill-rule="evenodd"></path><path id="path3" d="M123.800 126.857 C 119.832 128.161,119.157 128.523,118.567 129.663 C 118.229 130.318,118.022 131.067,118.109 131.327 C 118.230 131.689,131.894 131.771,176.233 131.675 C 242.559 131.532,261.045 131.866,263.925 133.260 C 268.728 135.586,268.253 141.645,263.095 143.838 C 260.909 144.767,236.478 145.098,165.625 145.158 L 116.250 145.200 117.425 146.452 C 120.987 150.247,122.072 150.316,178.400 150.340 C 235.560 150.363,266.187 149.855,270.173 148.816 C 278.529 146.638,281.548 143.275,280.398 137.427 C 279.077 130.715,275.423 128.483,263.292 126.978 C 257.615 126.274,125.922 126.160,123.800 126.857 " stroke="none" fill="#04a2ea" fill-rule="evenodd"></path><path id="path4" d="M172.000 107.589 C 166.610 107.705,186.320 107.800,215.800 107.800 C 245.280 107.800,267.510 107.687,265.200 107.549 C 260.239 107.253,186.171 107.285,172.000 107.589 M120.194 109.534 C 117.834 111.032,115.600 113.246,115.600 114.087 C 115.600 114.321,116.338 113.674,117.240 112.650 C 118.141 111.626,119.716 110.295,120.740 109.694 L 122.600 108.600 141.000 108.392 L 159.400 108.184 141.000 108.096 L 122.600 108.008 120.194 109.534 M273.400 108.392 C 275.380 108.583,277.720 108.852,278.600 108.990 C 279.744 109.169,280.077 109.118,279.769 108.810 C 279.530 108.570,277.215 108.304,274.569 108.212 C 269.837 108.046,269.828 108.048,273.400 108.392 M281.200 109.672 C 281.750 109.902,282.920 110.376,283.800 110.726 C 289.238 112.887,295.346 118.662,296.497 122.732 C 296.726 123.539,296.992 123.977,297.088 123.705 C 298.282 120.333,285.696 109.052,280.935 109.227 C 280.371 109.248,280.433 109.351,281.200 109.672 M114.965 115.348 C 114.849 115.649,114.810 116.864,114.877 118.048 L 115.000 120.200 126.800 120.295 C 133.290 120.348,144.360 120.241,151.400 120.059 C 163.839 119.736,163.507 119.725,139.644 119.663 L 115.089 119.600 115.307 117.200 C 115.518 114.873,115.397 114.221,114.965 115.348 M192.929 119.500 C 200.811 119.561,213.591 119.561,221.329 119.500 C 229.068 119.439,222.620 119.389,207.000 119.390 C 191.380 119.390,185.048 119.439,192.929 119.500 M248.200 119.984 C 255.327 120.427,272.466 120.767,269.000 120.397 C 267.460 120.232,260.980 119.999,254.600 119.879 C 246.827 119.733,244.716 119.768,248.200 119.984 M274.989 121.259 C 278.965 121.768,281.561 124.684,282.750 129.977 C 283.236 132.139,283.796 132.696,283.425 130.649 C 282.328 124.589,278.765 120.746,274.340 120.851 L 272.200 120.901 274.989 121.259 M297.200 124.879 C 297.200 125.215,297.393 126.460,297.628 127.645 C 297.863 128.830,298.292 131.780,298.581 134.200 C 298.995 137.669,299.116 138.135,299.152 136.400 C 299.197 134.258,297.828 124.895,297.409 124.476 C 297.294 124.361,297.200 124.542,297.200 124.879 M283.749 138.400 C 283.749 141.810,283.875 144.060,284.028 143.400 C 284.407 141.759,284.422 135.758,284.051 133.800 C 283.857 132.780,283.748 134.448,283.749 138.400 M299.301 141.800 C 299.305 142.680,299.387 142.993,299.483 142.495 C 299.579 141.998,299.575 141.278,299.475 140.895 C 299.375 140.513,299.296 140.920,299.301 141.800 M283.043 145.433 C 282.909 145.781,282.800 146.366,282.800 146.733 C 282.799 147.996,280.503 152.203,279.008 153.677 C 275.897 156.749,282.656 156.488,198.200 156.794 L 122.600 157.067 198.200 157.003 C 258.760 156.951,274.138 156.836,275.499 156.421 C 278.931 155.375,282.610 150.670,283.413 146.300 C 283.694 144.775,283.484 144.283,283.043 145.433 M298.688 147.304 C 298.517 148.792,298.228 150.412,298.047 150.904 C 297.433 152.571,297.165 154.069,297.521 153.849 C 298.093 153.495,299.268 147.888,299.129 146.177 C 299.021 144.860,298.949 145.046,298.688 147.304 M295.988 156.311 C 294.687 158.770,290.815 162.881,288.546 164.211 C 287.551 164.794,286.829 165.362,286.941 165.475 C 287.834 166.367,294.731 159.856,296.370 156.574 C 297.581 154.150,297.251 153.923,295.988 156.311 M113.414 158.500 C 114.134 161.866,119.361 167.537,122.700 168.574 C 124.218 169.046,123.702 168.521,121.700 167.555 C 118.434 165.981,114.873 161.895,113.832 158.525 C 113.592 157.747,113.730 157.633,115.081 157.493 L 116.600 157.334 114.868 157.267 L 113.136 157.200 113.414 158.500 M284.760 166.197 C 283.072 167.115,277.427 167.643,263.200 168.212 L 249.800 168.749 261.800 168.580 C 276.922 168.368,285.287 167.478,286.210 165.984 C 286.540 165.449,285.986 165.531,284.760 166.197 M136.800 169.222 C 153.158 169.574,224.645 169.572,235.000 169.219 C 239.400 169.070,216.270 168.948,183.600 168.949 C 150.665 168.950,129.814 169.072,136.800 169.222 M169.200 179.076 C 166.230 179.156,153.963 179.352,141.940 179.511 L 120.080 179.800 118.140 181.443 C 115.436 183.733,114.679 185.180,114.636 188.147 L 114.600 190.600 121.600 190.707 C 125.450 190.766,142.010 190.676,158.400 190.507 C 186.141 190.221,210.505 190.366,227.200 190.917 C 232.009 191.076,233.198 191.043,231.000 190.812 C 222.467 189.917,188.348 189.514,158.600 189.957 C 142.100 190.202,125.495 190.402,121.700 190.402 L 114.800 190.400 114.802 189.100 C 114.806 186.684,115.641 184.630,117.335 182.869 C 119.877 180.227,119.774 180.250,129.200 180.145 C 133.930 180.092,152.470 179.850,170.400 179.606 C 209.907 179.069,232.762 179.405,239.800 180.626 C 240.648 180.774,240.824 180.724,240.400 180.458 C 238.563 179.306,193.224 178.425,169.200 179.076 M243.792 182.312 C 248.817 184.991,253.489 190.843,253.647 194.657 C 253.673 195.286,253.846 196.340,254.031 197.000 C 254.262 197.823,254.302 197.399,254.159 195.655 C 254.044 194.255,253.801 192.815,253.619 192.455 C 253.437 192.095,252.954 191.105,252.544 190.256 C 251.053 187.164,246.770 183.167,243.140 181.479 C 240.521 180.261,240.933 180.787,243.792 182.312 M237.000 191.740 C 239.125 192.233,241.307 194.677,241.835 197.154 C 242.214 198.937,242.841 200.021,242.555 198.400 C 241.833 194.303,239.111 191.160,236.353 191.238 C 235.138 191.273,235.204 191.324,237.000 191.740 M181.900 195.900 C 186.795 195.963,194.805 195.963,199.700 195.900 C 204.595 195.836,200.590 195.784,190.800 195.784 C 181.010 195.784,177.005 195.836,181.900 195.900 M121.338 196.306 C 120.920 196.572,145.897 196.561,163.000 196.288 C 166.740 196.229,159.000 196.142,145.800 196.096 C 132.600 196.050,121.592 196.144,121.338 196.306 M211.400 196.251 C 213.855 196.502,228.510 196.590,227.377 196.347 C 226.730 196.208,222.600 196.102,218.200 196.111 C 213.800 196.121,210.740 196.183,211.400 196.251 M118.031 197.836 C 117.175 198.555,116.800 199.226,116.800 200.036 L 116.800 201.200 165.500 201.102 L 214.200 201.003 165.700 200.900 L 117.200 200.797 117.200 199.860 C 117.200 198.906,118.303 197.600,119.108 197.600 C 119.353 197.600,119.664 197.420,119.800 197.200 C 120.270 196.440,119.257 196.804,118.031 197.836 M229.800 197.200 C 230.240 197.389,230.960 197.544,231.400 197.544 L 232.200 197.544 231.400 197.200 C 230.960 197.011,230.240 196.856,229.800 196.856 L 229.000 196.856 229.800 197.200 M234.800 198.834 C 237.118 199.885,238.266 200.982,238.828 202.686 C 239.077 203.438,239.357 203.977,239.451 203.882 C 240.559 202.774,235.706 197.971,233.516 198.009 C 233.232 198.014,233.810 198.385,234.800 198.834 M254.700 201.800 C 255.060 205.984,255.053 213.621,254.685 216.400 C 254.441 218.249,254.474 218.472,254.896 217.800 C 255.547 216.763,255.520 201.084,254.865 199.600 C 254.521 198.822,254.485 199.309,254.700 201.800 M243.000 206.544 C 243.000 210.229,243.117 212.829,243.260 212.322 C 243.592 211.146,243.586 202.578,243.253 201.022 C 243.114 200.374,243.000 202.859,243.000 206.544 M221.000 201.403 C 221.885 201.711,226.372 201.829,225.904 201.532 C 225.627 201.356,224.320 201.224,223.000 201.238 C 221.680 201.252,220.780 201.326,221.000 201.403 M227.332 202.546 C 227.735 202.870,228.330 203.465,228.654 203.868 C 229.203 204.549,229.214 204.538,228.813 203.709 C 228.576 203.219,227.981 202.624,227.491 202.387 C 226.662 201.986,226.651 201.997,227.332 202.546 M229.194 206.881 C 229.087 208.136,229.146 209.016,229.324 208.837 C 229.503 208.658,229.590 207.631,229.518 206.556 L 229.387 204.600 229.194 206.881 M239.800 207.577 C 239.800 209.088,239.932 210.116,240.094 209.862 C 240.456 209.293,240.442 206.447,240.072 205.515 C 239.922 205.138,239.800 206.066,239.800 207.577 M228.036 210.157 C 227.781 210.463,227.034 210.938,226.374 211.211 C 225.714 211.484,225.253 211.787,225.350 211.883 C 225.607 212.141,227.773 210.956,228.378 210.226 C 228.664 209.882,228.808 209.600,228.698 209.600 C 228.588 209.600,228.290 209.851,228.036 210.157 M155.500 212.300 C 123.097 212.384,115.600 212.501,115.600 212.923 C 115.600 213.509,118.037 216.000,118.610 216.000 C 118.815 216.000,118.311 215.447,117.491 214.771 C 116.671 214.095,116.000 213.375,116.000 213.171 C 116.000 212.946,132.465 212.779,157.900 212.746 C 180.945 212.717,205.470 212.571,212.400 212.422 L 225.000 212.151 210.200 212.173 C 202.060 212.186,177.445 212.243,155.500 212.300 M236.600 213.812 C 235.940 214.353,235.580 214.790,235.800 214.784 C 236.020 214.777,236.740 214.329,237.400 213.788 C 238.060 213.247,238.420 212.810,238.200 212.816 C 237.980 212.823,237.260 213.271,236.600 213.812 M242.213 214.870 C 241.278 218.220,239.550 220.758,237.400 221.940 C 236.305 222.542,230.844 222.619,174.800 222.818 C 141.030 222.939,113.341 223.074,113.268 223.118 C 111.967 223.924,116.060 230.475,119.360 232.869 L 120.920 234.000 130.560 233.914 L 140.200 233.828 130.533 233.614 L 120.866 233.400 119.133 232.187 C 116.367 230.251,112.775 224.231,114.130 223.804 C 114.389 223.722,141.510 223.569,174.400 223.463 C 240.989 223.249,237.443 223.403,239.858 220.616 C 241.095 219.188,243.115 214.582,242.690 214.157 C 242.571 214.037,242.356 214.358,242.213 214.870 M229.400 216.400 L 227.800 216.686 229.200 216.715 C 229.970 216.731,230.960 216.589,231.400 216.400 C 232.343 215.995,231.662 215.995,229.400 216.400 M221.712 217.095 C 222.764 217.177,224.384 217.176,225.312 217.092 C 226.240 217.008,225.380 216.941,223.400 216.942 C 221.420 216.943,220.660 217.012,221.712 217.095 M144.100 217.500 C 155.925 217.559,175.275 217.559,187.100 217.500 C 198.925 217.441,189.250 217.393,165.600 217.393 C 141.950 217.393,132.275 217.441,144.100 217.500 M253.455 220.900 C 252.002 225.065,249.016 228.672,245.148 230.936 C 242.552 232.455,235.127 233.113,215.400 233.571 L 199.800 233.934 216.400 233.770 C 236.014 233.577,241.927 233.092,245.113 231.415 C 249.280 229.221,253.455 224.023,254.253 220.037 C 254.626 218.170,254.275 218.549,253.455 220.900 M163.927 234.300 C 168.617 234.364,176.177 234.364,180.727 234.299 C 185.277 234.235,181.440 234.183,172.200 234.183 C 162.960 234.183,159.237 234.236,163.927 234.300 M172.465 245.205 C 157.871 245.388,145.811 245.656,145.665 245.802 C 145.519 245.949,158.540 245.918,174.600 245.734 C 209.093 245.339,250.888 245.300,265.200 245.648 C 271.141 245.793,274.565 245.756,273.400 245.559 C 270.438 245.060,203.015 244.823,172.465 245.205 M120.400 247.147 C 118.548 248.311,115.600 251.293,115.600 252.001 C 115.600 252.716,115.967 252.423,116.596 251.208 C 117.190 250.058,121.155 246.800,121.959 246.800 C 122.176 246.800,122.464 246.620,122.600 246.400 C 123.023 245.715,122.271 245.970,120.400 247.147 M280.000 246.562 C 281.430 246.867,283.657 247.586,284.950 248.158 C 287.548 249.310,287.749 249.365,287.421 248.834 C 286.997 248.148,281.729 246.377,279.561 246.192 L 277.400 246.007 280.000 246.562 M288.000 249.362 C 288.000 249.451,288.778 249.980,289.730 250.538 C 293.553 252.778,297.796 257.589,298.606 260.600 C 298.818 261.389,298.982 261.574,299.086 261.139 C 299.335 260.095,297.019 256.208,294.814 253.971 C 292.731 251.858,288.000 248.658,288.000 249.362 M114.965 253.348 C 114.849 253.649,114.810 254.864,114.877 256.048 L 115.000 258.200 122.400 258.296 C 126.470 258.349,135.920 258.242,143.400 258.060 L 157.000 257.727 136.044 257.664 L 115.089 257.600 115.307 255.200 C 115.518 252.873,115.397 252.221,114.965 253.348 M187.530 257.500 C 197.722 257.559,214.282 257.559,224.330 257.500 C 234.379 257.440,226.040 257.392,205.800 257.392 C 185.560 257.392,177.339 257.440,187.530 257.500 M252.400 257.982 C 258.636 258.419,274.925 258.774,271.400 258.396 C 269.860 258.231,263.920 257.997,258.200 257.877 C 251.302 257.732,249.349 257.768,252.400 257.982 M276.939 259.204 C 280.508 259.660,282.752 261.832,284.117 266.152 C 285.426 270.295,285.537 270.588,285.568 269.973 C 285.833 264.724,280.929 258.728,276.474 258.852 L 274.600 258.905 276.939 259.204 M299.434 263.800 C 299.899 267.464,300.399 268.862,300.149 265.800 C 300.023 264.260,299.754 262.730,299.550 262.400 C 299.311 262.013,299.270 262.509,299.434 263.800 M124.715 264.728 C 124.339 264.878,155.839 265.000,194.715 265.000 C 233.592 265.000,264.500 264.881,263.400 264.735 C 260.752 264.384,125.598 264.377,124.715 264.728 M267.600 265.550 C 269.145 266.045,271.884 266.412,271.200 266.032 C 270.870 265.849,269.700 265.594,268.600 265.464 C 267.360 265.319,266.980 265.351,267.600 265.550 M118.870 267.326 C 118.391 267.835,118.000 268.732,118.000 269.318 L 118.000 270.385 184.300 270.292 C 227.461 270.232,245.086 270.103,234.800 269.922 C 226.110 269.769,196.365 269.751,168.700 269.882 L 118.400 270.120 118.400 269.186 C 118.400 268.672,118.791 267.835,119.270 267.326 C 119.748 266.817,120.049 266.400,119.939 266.400 C 119.829 266.400,119.348 266.817,118.870 267.326 M273.000 266.800 C 273.440 266.989,274.070 267.144,274.400 267.144 C 274.778 267.144,274.704 267.017,274.200 266.800 C 273.760 266.611,273.130 266.456,272.800 266.456 C 272.422 266.456,272.496 266.583,273.000 266.800 M277.715 268.634 C 278.769 269.182,279.983 270.209,280.414 270.915 C 280.845 271.622,281.198 271.999,281.199 271.754 C 281.202 270.567,277.479 267.538,276.116 267.619 C 275.942 267.629,276.662 268.086,277.715 268.634 M300.720 272.200 C 301.080 276.828,301.078 283.434,300.715 287.000 C 300.484 289.278,300.521 289.651,300.915 289.000 C 301.552 287.949,301.521 271.056,300.880 269.600 C 300.542 268.831,300.505 269.431,300.720 272.200 M259.907 270.690 C 260.626 270.779,261.706 270.777,262.307 270.686 C 262.908 270.595,262.320 270.522,261.000 270.524 C 259.680 270.526,259.188 270.601,259.907 270.690 M285.792 276.723 C 285.796 280.091,285.917 282.431,286.060 281.923 C 286.396 280.732,286.384 273.364,286.045 271.800 C 285.901 271.140,285.788 273.355,285.792 276.723 M267.615 273.000 C 267.621 273.220,267.890 273.749,268.213 274.176 C 269.543 275.935,268.987 278.758,266.920 280.738 C 265.299 282.292,265.220 282.434,266.348 281.770 C 269.094 280.153,270.077 276.333,268.400 273.800 C 267.963 273.140,267.610 272.780,267.615 273.000 M282.520 278.000 C 282.520 279.210,282.595 279.705,282.687 279.100 C 282.778 278.495,282.778 277.505,282.687 276.900 C 282.595 276.295,282.520 276.790,282.520 278.000 M281.729 281.500 C 281.593 281.885,281.014 282.740,280.441 283.400 L 279.400 284.600 280.664 283.460 C 281.359 282.833,282.017 281.978,282.126 281.560 C 282.376 280.605,282.060 280.558,281.729 281.500 M262.600 282.800 C 261.511 283.077,261.493 283.107,262.400 283.125 C 262.950 283.135,263.760 282.989,264.200 282.800 C 265.186 282.376,264.266 282.376,262.600 282.800 M246.723 283.499 C 249.431 283.568,253.751 283.568,256.323 283.499 C 258.895 283.429,256.680 283.372,251.400 283.373 C 246.120 283.373,244.015 283.430,246.723 283.499 M116.400 283.911 C 116.400 284.506,117.647 285.997,118.521 286.447 C 119.157 286.775,119.042 286.543,118.104 285.606 C 117.391 284.894,116.906 284.152,117.027 283.956 C 117.148 283.760,117.057 283.600,116.824 283.600 C 116.591 283.600,116.400 283.740,116.400 283.911 M284.970 284.700 C 283.989 289.092,281.455 293.001,278.732 294.321 C 277.779 294.782,277.234 295.169,277.520 295.180 C 280.117 295.280,284.567 289.593,285.408 285.100 C 285.729 283.384,285.342 283.031,284.970 284.700 M277.400 285.431 C 276.520 285.957,275.980 286.389,276.200 286.392 C 276.681 286.398,279.200 284.898,279.200 284.606 C 279.200 284.344,279.283 284.307,277.400 285.431 M273.656 286.859 C 272.917 287.072,272.387 287.320,272.479 287.412 C 272.681 287.614,275.600 286.837,275.600 286.581 C 275.600 286.346,275.282 286.391,273.656 286.859 M121.600 287.949 C 121.930 288.146,122.830 288.420,123.600 288.556 C 124.544 288.723,124.740 288.692,124.200 288.461 C 122.963 287.932,120.890 287.523,121.600 287.949 M268.000 288.000 L 265.800 288.270 268.000 288.307 C 269.210 288.327,270.560 288.189,271.000 288.000 L 271.800 287.656 271.000 287.693 C 270.560 287.714,269.210 287.852,268.000 288.000 M259.500 288.695 C 260.655 288.776,262.545 288.776,263.700 288.695 C 264.855 288.614,263.910 288.548,261.600 288.548 C 259.290 288.548,258.345 288.614,259.500 288.695 M155.131 289.100 C 171.484 289.158,198.124 289.158,214.331 289.100 C 230.539 289.042,217.160 288.995,184.600 288.995 C 152.040 288.995,138.779 289.042,155.131 289.100 M299.617 291.740 C 298.489 295.768,294.214 301.253,290.500 303.435 C 288.341 304.703,288.282 305.057,290.415 303.945 C 294.756 301.683,301.163 292.888,300.317 290.351 C 300.224 290.072,299.909 290.697,299.617 291.740 M245.800 295.622 C 231.940 295.768,196.519 295.913,167.087 295.944 C 119.388 295.994,113.549 296.067,113.339 296.614 C 112.525 298.735,118.163 305.641,122.341 307.640 L 124.200 308.530 175.200 308.683 C 203.250 308.767,231.960 308.687,239.000 308.505 C 248.019 308.272,232.952 308.159,188.000 308.121 L 124.200 308.067 122.016 306.934 C 118.148 304.926,112.583 298.003,113.865 296.793 C 114.049 296.620,150.200 296.384,194.200 296.269 C 244.207 296.139,274.725 295.915,275.600 295.671 C 276.814 295.334,276.601 295.287,274.000 295.319 C 272.350 295.340,259.660 295.476,245.800 295.622 M287.000 305.292 C 286.560 305.549,285.030 305.988,283.600 306.267 L 281.000 306.775 283.400 306.622 C 285.453 306.491,288.400 305.518,288.400 304.971 C 288.400 304.676,287.830 304.807,287.000 305.292 M264.600 307.428 L 253.800 307.923 265.607 307.730 C 272.100 307.624,278.040 307.390,278.807 307.210 C 280.708 306.762,278.325 306.799,264.600 307.428 " stroke="none" fill="#816b57" fill-rule="evenodd"></path></g></svg>